<svg xmlns="http://www.w3.org/2000/svg" xmlns:xlink="http://www.w3.org/1999/xlink" version="1.1" x="0px" y="0px" viewBox="0 0 65 81.25" style="enable-background:new 0 0 65 65;" xml:space="preserve"><style type="text/css">
	.st0{fill:#FFFFFF;}
</style><path d="M32.5,2.5c-14.4,0-26,11.8-26,26.2c0,0.4,0,16.1,0,16.1c0,1,0.8,1.8,1.9,1.8h4c1,0,1.8,0.9,1.8,1.9v12c0,1,0.8,2,1.9,2H26  C44,62.4,58.5,50,58.5,28.6C58.5,14.2,46.9,2.5,32.5,2.5z M43.9,34.7c-3.5,3.5-8.1,5.2-12.6,5.2c-4.6,0-9.1-1.7-12.6-5.2l1.6-1.6  c6.1,6.1,16,6.1,22.1,0c4.8-4.8,4.8-12.6,0-17.4c-1.8-1.8-4.2-2.8-6.8-2.8c-2.6,0-5,1-6.8,2.8c-2.9,2.9-2.9,7.6,0,10.6  c2.2,2.2,5.9,2.2,8.1,0c0.8-0.8,1.3-1.9,1.3-3.1c0-1.2-0.5-2.3-1.3-3.1c-0.7-0.7-1.8-1-2.8-0.9c1,0,1.9,0.6,2.4,1.4  c1,1.3,0.9,3.2-0.3,4.4c-1.5,1.5-4.1,1.5-5.6,0c-0.9-0.9-1.4-2-1.4-3.3c0-1.2,0.5-2.4,1.4-3.3c1-1,2.4-1.6,3.9-1.6  c1.5,0,2.9,0.6,3.9,1.6c1.2,1.2,1.9,2.9,1.9,4.7c0,1.8-0.7,3.4-1.9,4.7c-3.1,3.1-8.2,3.1-11.3,0c-3.8-3.8-3.8-9.9,0-13.7  c2.2-2.2,5.2-3.5,8.4-3.5c3.2,0,6.1,1.2,8.4,3.5C49.5,19.8,49.5,29,43.9,34.7z"/><path class="st0" d="M33.7,19.3c0.1,0,0.2,0,0.2,0c0,0,0,0,0,0C33.8,19.3,33.7,19.3,33.7,19.3z"/><text x="0" y="80" fill="#000000" font-size="5px" font-weight="bold" font-family="'Helvetica Neue', Helvetica, Arial-Unicode, Arial, Sans-serif">Created by Vishal Marotkar</text><text x="0" y="85" fill="#000000" font-size="5px" font-weight="bold" font-family="'Helvetica Neue', Helvetica, Arial-Unicode, Arial, Sans-serif">from the Noun Project</text></svg>